G04 #@! TF.FileFunction,Legend,Top*
%FSLAX46Y46*%
G04 Gerber Fmt 4.6, Leading zero omitted, Abs format (unit mm)*
G04 Created by KiCad (PCBNEW 4.0.7) date 2018 June 21, Thursday 20:27:03*
%MOMM*%
%LPD*%
G01*
G04 APERTURE LIST*
%ADD10C,0.100000*%
%ADD11C,0.300000*%
%ADD12C,0.200000*%
%ADD13C,0.150000*%
%ADD14C,0.120000*%
%ADD15C,0.254000*%
%ADD16C,0.075000*%
G04 APERTURE END LIST*
D10*
D11*
X157518571Y-87442857D02*
X156018571Y-87442857D01*
X156518571Y-86728571D02*
X157518571Y-86728571D01*
X156661429Y-86728571D02*
X156590000Y-86657143D01*
X156518571Y-86514285D01*
X156518571Y-86300000D01*
X156590000Y-86157143D01*
X156732857Y-86085714D01*
X157518571Y-86085714D01*
X157447143Y-84728571D02*
X157518571Y-84871428D01*
X157518571Y-85157142D01*
X157447143Y-85300000D01*
X157375714Y-85371428D01*
X157232857Y-85442857D01*
X156804286Y-85442857D01*
X156661429Y-85371428D01*
X156590000Y-85300000D01*
X156518571Y-85157142D01*
X156518571Y-84871428D01*
X156590000Y-84728571D01*
X157518571Y-84085714D02*
X156518571Y-84085714D01*
X156018571Y-84085714D02*
X156090000Y-84157143D01*
X156161429Y-84085714D01*
X156090000Y-84014286D01*
X156018571Y-84085714D01*
X156161429Y-84085714D01*
X156018571Y-83514285D02*
X157518571Y-83157142D01*
X156447143Y-82871428D01*
X157518571Y-82585714D01*
X156018571Y-82228571D01*
X157518571Y-81657142D02*
X156518571Y-81657142D01*
X156018571Y-81657142D02*
X156090000Y-81728571D01*
X156161429Y-81657142D01*
X156090000Y-81585714D01*
X156018571Y-81657142D01*
X156161429Y-81657142D01*
X156518571Y-80942856D02*
X157518571Y-80942856D01*
X156661429Y-80942856D02*
X156590000Y-80871428D01*
X156518571Y-80728570D01*
X156518571Y-80514285D01*
X156590000Y-80371428D01*
X156732857Y-80299999D01*
X157518571Y-80299999D01*
X157447143Y-78942856D02*
X157518571Y-79085713D01*
X157518571Y-79371427D01*
X157447143Y-79514285D01*
X157375714Y-79585713D01*
X157232857Y-79657142D01*
X156804286Y-79657142D01*
X156661429Y-79585713D01*
X156590000Y-79514285D01*
X156518571Y-79371427D01*
X156518571Y-79085713D01*
X156590000Y-78942856D01*
X157518571Y-78299999D02*
X156018571Y-78299999D01*
X157518571Y-77657142D02*
X156732857Y-77657142D01*
X156590000Y-77728571D01*
X156518571Y-77871428D01*
X156518571Y-78085713D01*
X156590000Y-78228571D01*
X156661429Y-78299999D01*
X159640000Y-90550000D02*
X159640000Y-89835714D01*
X160068571Y-90692857D02*
X158568571Y-90192857D01*
X160068571Y-89692857D01*
X160068571Y-89192857D02*
X158568571Y-89192857D01*
X159497143Y-89050000D02*
X160068571Y-88621429D01*
X159068571Y-88621429D02*
X159640000Y-89192857D01*
X160068571Y-87335714D02*
X159282857Y-87335714D01*
X159140000Y-87407143D01*
X159068571Y-87550000D01*
X159068571Y-87835714D01*
X159140000Y-87978571D01*
X159997143Y-87335714D02*
X160068571Y-87478571D01*
X160068571Y-87835714D01*
X159997143Y-87978571D01*
X159854286Y-88050000D01*
X159711429Y-88050000D01*
X159568571Y-87978571D01*
X159497143Y-87835714D01*
X159497143Y-87478571D01*
X159425714Y-87335714D01*
X159068571Y-86835714D02*
X159068571Y-86264285D01*
X160068571Y-86621428D02*
X158782857Y-86621428D01*
X158640000Y-86550000D01*
X158568571Y-86407142D01*
X158568571Y-86264285D01*
X160068571Y-85549999D02*
X159997143Y-85692857D01*
X159854286Y-85764285D01*
X158568571Y-85764285D01*
X160068571Y-84978571D02*
X159068571Y-84978571D01*
X158568571Y-84978571D02*
X158640000Y-85050000D01*
X158711429Y-84978571D01*
X158640000Y-84907143D01*
X158568571Y-84978571D01*
X158711429Y-84978571D01*
X159997143Y-83692857D02*
X160068571Y-83835714D01*
X160068571Y-84121428D01*
X159997143Y-84264285D01*
X159854286Y-84335714D01*
X159282857Y-84335714D01*
X159140000Y-84264285D01*
X159068571Y-84121428D01*
X159068571Y-83835714D01*
X159140000Y-83692857D01*
X159282857Y-83621428D01*
X159425714Y-83621428D01*
X159568571Y-84335714D01*
X159068571Y-82335714D02*
X160282857Y-82335714D01*
X160425714Y-82407143D01*
X160497143Y-82478571D01*
X160568571Y-82621428D01*
X160568571Y-82835714D01*
X160497143Y-82978571D01*
X159997143Y-82335714D02*
X160068571Y-82478571D01*
X160068571Y-82764285D01*
X159997143Y-82907143D01*
X159925714Y-82978571D01*
X159782857Y-83050000D01*
X159354286Y-83050000D01*
X159211429Y-82978571D01*
X159140000Y-82907143D01*
X159068571Y-82764285D01*
X159068571Y-82478571D01*
X159140000Y-82335714D01*
X159282857Y-79978571D02*
X159354286Y-79764285D01*
X159425714Y-79692857D01*
X159568571Y-79621428D01*
X159782857Y-79621428D01*
X159925714Y-79692857D01*
X159997143Y-79764285D01*
X160068571Y-79907143D01*
X160068571Y-80478571D01*
X158568571Y-80478571D01*
X158568571Y-79978571D01*
X158640000Y-79835714D01*
X158711429Y-79764285D01*
X158854286Y-79692857D01*
X158997143Y-79692857D01*
X159140000Y-79764285D01*
X159211429Y-79835714D01*
X159282857Y-79978571D01*
X159282857Y-80478571D01*
X159997143Y-78407143D02*
X160068571Y-78550000D01*
X160068571Y-78835714D01*
X159997143Y-78978571D01*
X159854286Y-79050000D01*
X159282857Y-79050000D01*
X159140000Y-78978571D01*
X159068571Y-78835714D01*
X159068571Y-78550000D01*
X159140000Y-78407143D01*
X159282857Y-78335714D01*
X159425714Y-78335714D01*
X159568571Y-79050000D01*
X160068571Y-77692857D02*
X159068571Y-77692857D01*
X159354286Y-77692857D02*
X159211429Y-77621429D01*
X159140000Y-77550000D01*
X159068571Y-77407143D01*
X159068571Y-77264286D01*
X160068571Y-76550000D02*
X159997143Y-76692858D01*
X159854286Y-76764286D01*
X158568571Y-76764286D01*
X160068571Y-75978572D02*
X159068571Y-75978572D01*
X158568571Y-75978572D02*
X158640000Y-76050001D01*
X158711429Y-75978572D01*
X158640000Y-75907144D01*
X158568571Y-75978572D01*
X158711429Y-75978572D01*
X159068571Y-75264286D02*
X160068571Y-75264286D01*
X159211429Y-75264286D02*
X159140000Y-75192858D01*
X159068571Y-75050000D01*
X159068571Y-74835715D01*
X159140000Y-74692858D01*
X159282857Y-74621429D01*
X160068571Y-74621429D01*
D12*
X163601905Y-80595476D02*
X164316190Y-80595476D01*
X163959047Y-81845476D02*
X163959047Y-80595476D01*
X164613809Y-81845476D02*
X165268571Y-81012143D01*
X164613809Y-81012143D02*
X165268571Y-81845476D01*
X164345953Y-84385476D02*
X163929286Y-83790238D01*
X163631667Y-84385476D02*
X163631667Y-83135476D01*
X164107858Y-83135476D01*
X164226905Y-83195000D01*
X164286429Y-83254524D01*
X164345953Y-83373571D01*
X164345953Y-83552143D01*
X164286429Y-83671190D01*
X164226905Y-83730714D01*
X164107858Y-83790238D01*
X163631667Y-83790238D01*
X164762619Y-84385476D02*
X165417381Y-83552143D01*
X164762619Y-83552143D02*
X165417381Y-84385476D01*
X163601905Y-71705476D02*
X164316190Y-71705476D01*
X163959047Y-72955476D02*
X163959047Y-71705476D01*
X164613809Y-72955476D02*
X165268571Y-72122143D01*
X164613809Y-72122143D02*
X165268571Y-72955476D01*
X164345953Y-76130476D02*
X163929286Y-75535238D01*
X163631667Y-76130476D02*
X163631667Y-74880476D01*
X164107858Y-74880476D01*
X164226905Y-74940000D01*
X164286429Y-74999524D01*
X164345953Y-75118571D01*
X164345953Y-75297143D01*
X164286429Y-75416190D01*
X164226905Y-75475714D01*
X164107858Y-75535238D01*
X163631667Y-75535238D01*
X164762619Y-76130476D02*
X165417381Y-75297143D01*
X164762619Y-75297143D02*
X165417381Y-76130476D01*
D11*
X153555000Y-102742857D02*
X153483571Y-102885714D01*
X153483571Y-103100000D01*
X153555000Y-103314285D01*
X153697857Y-103457143D01*
X153840714Y-103528571D01*
X154126429Y-103600000D01*
X154340714Y-103600000D01*
X154626429Y-103528571D01*
X154769286Y-103457143D01*
X154912143Y-103314285D01*
X154983571Y-103100000D01*
X154983571Y-102957143D01*
X154912143Y-102742857D01*
X154840714Y-102671428D01*
X154340714Y-102671428D01*
X154340714Y-102957143D01*
X154983571Y-102028571D02*
X153483571Y-102028571D01*
X154983571Y-101171428D01*
X153483571Y-101171428D01*
X154983571Y-100457142D02*
X153483571Y-100457142D01*
X153483571Y-100099999D01*
X153555000Y-99885714D01*
X153697857Y-99742856D01*
X153840714Y-99671428D01*
X154126429Y-99599999D01*
X154340714Y-99599999D01*
X154626429Y-99671428D01*
X154769286Y-99742856D01*
X154912143Y-99885714D01*
X154983571Y-100099999D01*
X154983571Y-100457142D01*
X153483571Y-108215714D02*
X154983571Y-107715714D01*
X153483571Y-107215714D01*
X154983571Y-106715714D02*
X153983571Y-106715714D01*
X153483571Y-106715714D02*
X153555000Y-106787143D01*
X153626429Y-106715714D01*
X153555000Y-106644286D01*
X153483571Y-106715714D01*
X153626429Y-106715714D01*
X153983571Y-106001428D02*
X154983571Y-106001428D01*
X154126429Y-106001428D02*
X154055000Y-105930000D01*
X153983571Y-105787142D01*
X153983571Y-105572857D01*
X154055000Y-105430000D01*
X154197857Y-105358571D01*
X154983571Y-105358571D01*
D10*
X141275000Y-148394000D02*
X163125000Y-148394000D01*
X163075000Y-148394000D02*
X163075000Y-142626000D01*
X163075000Y-115626000D02*
X163075000Y-114614000D01*
X163075000Y-114614000D02*
X160125000Y-114614000D01*
X144125000Y-114614000D02*
X141125000Y-114626000D01*
X141175000Y-115626000D02*
X141175000Y-114626000D01*
D12*
X164825000Y-140826000D02*
X164825000Y-140826000D01*
X164825000Y-140626000D02*
X164825000Y-140626000D01*
X164825000Y-140626000D02*
G75*
G03X164825000Y-140826000I0J-100000D01*
G01*
X164825000Y-140826000D02*
G75*
G03X164825000Y-140626000I0J100000D01*
G01*
D13*
X147574000Y-66040000D02*
X147574000Y-64590000D01*
X147574000Y-64590000D02*
X139446000Y-64590000D01*
X139446000Y-64590000D02*
X139446000Y-66040000D01*
X152400000Y-109220000D02*
X134620000Y-109220000D01*
X152400000Y-66040000D02*
X134620000Y-66040000D01*
X134620000Y-109220000D02*
X134620000Y-66040000D01*
X152400000Y-109220000D02*
X152400000Y-66040000D01*
D14*
X156260000Y-109330000D02*
X168860000Y-109330000D01*
X168860000Y-109330000D02*
X168860000Y-98980000D01*
X168860000Y-98980000D02*
X167910000Y-98980000D01*
X167910000Y-98980000D02*
X168160000Y-98480000D01*
X168160000Y-98480000D02*
X166260000Y-98480000D01*
X166260000Y-98480000D02*
X166210000Y-98480000D01*
X166210000Y-98480000D02*
X166460000Y-98980000D01*
X166460000Y-98980000D02*
X161060000Y-98980000D01*
X161060000Y-98980000D02*
X161360000Y-98480000D01*
X161360000Y-98480000D02*
X156260000Y-98480000D01*
X156260000Y-98480000D02*
X156260000Y-109330000D01*
X168970000Y-82550000D02*
X168970000Y-79950000D01*
X168970000Y-79950000D02*
X166310000Y-79950000D01*
X166310000Y-79950000D02*
X166310000Y-82550000D01*
X166310000Y-82550000D02*
X168970000Y-82550000D01*
X168970000Y-83820000D02*
X168970000Y-85150000D01*
X168970000Y-85150000D02*
X167640000Y-85150000D01*
X168970000Y-73660000D02*
X168970000Y-71060000D01*
X168970000Y-71060000D02*
X166310000Y-71060000D01*
X166310000Y-71060000D02*
X166310000Y-73660000D01*
X166310000Y-73660000D02*
X168970000Y-73660000D01*
X168970000Y-74930000D02*
X168970000Y-76260000D01*
X168970000Y-76260000D02*
X167640000Y-76260000D01*
D15*
X150343811Y-131384524D02*
X151009049Y-130537857D01*
X150343811Y-130537857D02*
X151009049Y-131384524D01*
X151916191Y-130719286D02*
X152097620Y-130779762D01*
X152158096Y-130840238D01*
X152218572Y-130961190D01*
X152218572Y-131142619D01*
X152158096Y-131263571D01*
X152097620Y-131324048D01*
X151976667Y-131384524D01*
X151492858Y-131384524D01*
X151492858Y-130114524D01*
X151916191Y-130114524D01*
X152037144Y-130175000D01*
X152097620Y-130235476D01*
X152158096Y-130356429D01*
X152158096Y-130477381D01*
X152097620Y-130598333D01*
X152037144Y-130658810D01*
X151916191Y-130719286D01*
X151492858Y-130719286D01*
X153246667Y-131324048D02*
X153125715Y-131384524D01*
X152883810Y-131384524D01*
X152762858Y-131324048D01*
X152702382Y-131203095D01*
X152702382Y-130719286D01*
X152762858Y-130598333D01*
X152883810Y-130537857D01*
X153125715Y-130537857D01*
X153246667Y-130598333D01*
X153307144Y-130719286D01*
X153307144Y-130840238D01*
X152702382Y-130961190D01*
X154335238Y-131324048D02*
X154214286Y-131384524D01*
X153972381Y-131384524D01*
X153851429Y-131324048D01*
X153790953Y-131203095D01*
X153790953Y-130719286D01*
X153851429Y-130598333D01*
X153972381Y-130537857D01*
X154214286Y-130537857D01*
X154335238Y-130598333D01*
X154395715Y-130719286D01*
X154395715Y-130840238D01*
X153790953Y-130961190D01*
D13*
X140914762Y-74461667D02*
X141390953Y-74461667D01*
X140819524Y-74747381D02*
X141152857Y-73747381D01*
X141486191Y-74747381D01*
X141819524Y-74747381D02*
X141819524Y-74080714D01*
X141819524Y-74271190D02*
X141867143Y-74175952D01*
X141914762Y-74128333D01*
X142010000Y-74080714D01*
X142105239Y-74080714D01*
X142867144Y-74747381D02*
X142867144Y-73747381D01*
X142867144Y-74699762D02*
X142771906Y-74747381D01*
X142581429Y-74747381D01*
X142486191Y-74699762D01*
X142438572Y-74652143D01*
X142390953Y-74556905D01*
X142390953Y-74271190D01*
X142438572Y-74175952D01*
X142486191Y-74128333D01*
X142581429Y-74080714D01*
X142771906Y-74080714D01*
X142867144Y-74128333D01*
X143771906Y-74080714D02*
X143771906Y-74747381D01*
X143343334Y-74080714D02*
X143343334Y-74604524D01*
X143390953Y-74699762D01*
X143486191Y-74747381D01*
X143629049Y-74747381D01*
X143724287Y-74699762D01*
X143771906Y-74652143D01*
X144248096Y-74747381D02*
X144248096Y-74080714D01*
X144248096Y-73747381D02*
X144200477Y-73795000D01*
X144248096Y-73842619D01*
X144295715Y-73795000D01*
X144248096Y-73747381D01*
X144248096Y-73842619D01*
X144724286Y-74080714D02*
X144724286Y-74747381D01*
X144724286Y-74175952D02*
X144771905Y-74128333D01*
X144867143Y-74080714D01*
X145010001Y-74080714D01*
X145105239Y-74128333D01*
X145152858Y-74223571D01*
X145152858Y-74747381D01*
X145771905Y-74747381D02*
X145676667Y-74699762D01*
X145629048Y-74652143D01*
X145581429Y-74556905D01*
X145581429Y-74271190D01*
X145629048Y-74175952D01*
X145676667Y-74128333D01*
X145771905Y-74080714D01*
X145914763Y-74080714D01*
X146010001Y-74128333D01*
X146057620Y-74175952D01*
X146105239Y-74271190D01*
X146105239Y-74556905D01*
X146057620Y-74652143D01*
X146010001Y-74699762D01*
X145914763Y-74747381D01*
X145771905Y-74747381D01*
D16*
X142879048Y-65131190D02*
X142879048Y-65535952D01*
X142902857Y-65583571D01*
X142926667Y-65607381D01*
X142974286Y-65631190D01*
X143069524Y-65631190D01*
X143117143Y-65607381D01*
X143140952Y-65583571D01*
X143164762Y-65535952D01*
X143164762Y-65131190D01*
X143379048Y-65607381D02*
X143450477Y-65631190D01*
X143569524Y-65631190D01*
X143617143Y-65607381D01*
X143640953Y-65583571D01*
X143664762Y-65535952D01*
X143664762Y-65488333D01*
X143640953Y-65440714D01*
X143617143Y-65416905D01*
X143569524Y-65393095D01*
X143474286Y-65369286D01*
X143426667Y-65345476D01*
X143402858Y-65321667D01*
X143379048Y-65274048D01*
X143379048Y-65226429D01*
X143402858Y-65178810D01*
X143426667Y-65155000D01*
X143474286Y-65131190D01*
X143593334Y-65131190D01*
X143664762Y-65155000D01*
X144045714Y-65369286D02*
X144117143Y-65393095D01*
X144140952Y-65416905D01*
X144164762Y-65464524D01*
X144164762Y-65535952D01*
X144140952Y-65583571D01*
X144117143Y-65607381D01*
X144069524Y-65631190D01*
X143879048Y-65631190D01*
X143879048Y-65131190D01*
X144045714Y-65131190D01*
X144093333Y-65155000D01*
X144117143Y-65178810D01*
X144140952Y-65226429D01*
X144140952Y-65274048D01*
X144117143Y-65321667D01*
X144093333Y-65345476D01*
X144045714Y-65369286D01*
X143879048Y-65369286D01*
X136886190Y-73128094D02*
X136886190Y-72818571D01*
X137076667Y-72985237D01*
X137076667Y-72913809D01*
X137100476Y-72866190D01*
X137124286Y-72842380D01*
X137171905Y-72818571D01*
X137290952Y-72818571D01*
X137338571Y-72842380D01*
X137362381Y-72866190D01*
X137386190Y-72913809D01*
X137386190Y-73056666D01*
X137362381Y-73104285D01*
X137338571Y-73128094D01*
X137338571Y-72604285D02*
X137362381Y-72580476D01*
X137386190Y-72604285D01*
X137362381Y-72628095D01*
X137338571Y-72604285D01*
X137386190Y-72604285D01*
X136886190Y-72413809D02*
X136886190Y-72104286D01*
X137076667Y-72270952D01*
X137076667Y-72199524D01*
X137100476Y-72151905D01*
X137124286Y-72128095D01*
X137171905Y-72104286D01*
X137290952Y-72104286D01*
X137338571Y-72128095D01*
X137362381Y-72151905D01*
X137386190Y-72199524D01*
X137386190Y-72342381D01*
X137362381Y-72390000D01*
X137338571Y-72413809D01*
X136886190Y-71961429D02*
X137386190Y-71794762D01*
X136886190Y-71628096D01*
D13*
X170632381Y-107259048D02*
X169632381Y-107259048D01*
X169632381Y-106878095D01*
X169680000Y-106782857D01*
X169727619Y-106735238D01*
X169822857Y-106687619D01*
X169965714Y-106687619D01*
X170060952Y-106735238D01*
X170108571Y-106782857D01*
X170156190Y-106878095D01*
X170156190Y-107259048D01*
X170632381Y-106116191D02*
X170584762Y-106211429D01*
X170537143Y-106259048D01*
X170441905Y-106306667D01*
X170156190Y-106306667D01*
X170060952Y-106259048D01*
X170013333Y-106211429D01*
X169965714Y-106116191D01*
X169965714Y-105973333D01*
X170013333Y-105878095D01*
X170060952Y-105830476D01*
X170156190Y-105782857D01*
X170441905Y-105782857D01*
X170537143Y-105830476D01*
X170584762Y-105878095D01*
X170632381Y-105973333D01*
X170632381Y-106116191D01*
X169965714Y-105449524D02*
X170632381Y-105259048D01*
X170156190Y-105068571D01*
X170632381Y-104878095D01*
X169965714Y-104687619D01*
X170584762Y-103925714D02*
X170632381Y-104020952D01*
X170632381Y-104211429D01*
X170584762Y-104306667D01*
X170489524Y-104354286D01*
X170108571Y-104354286D01*
X170013333Y-104306667D01*
X169965714Y-104211429D01*
X169965714Y-104020952D01*
X170013333Y-103925714D01*
X170108571Y-103878095D01*
X170203810Y-103878095D01*
X170299048Y-104354286D01*
X170632381Y-103449524D02*
X169965714Y-103449524D01*
X170156190Y-103449524D02*
X170060952Y-103401905D01*
X170013333Y-103354286D01*
X169965714Y-103259048D01*
X169965714Y-103163809D01*
X170632381Y-102068571D02*
X169632381Y-102068571D01*
X170632381Y-101592381D02*
X169632381Y-101592381D01*
X170632381Y-101020952D01*
X169632381Y-101020952D01*
X167306667Y-85602381D02*
X167306667Y-86316667D01*
X167259047Y-86459524D01*
X167163809Y-86554762D01*
X167020952Y-86602381D01*
X166925714Y-86602381D01*
X167735238Y-85697619D02*
X167782857Y-85650000D01*
X167878095Y-85602381D01*
X168116191Y-85602381D01*
X168211429Y-85650000D01*
X168259048Y-85697619D01*
X168306667Y-85792857D01*
X168306667Y-85888095D01*
X168259048Y-86030952D01*
X167687619Y-86602381D01*
X168306667Y-86602381D01*
X170632381Y-83351666D02*
X170632381Y-83827857D01*
X169632381Y-83827857D01*
X169632381Y-83113571D02*
X170632381Y-82446904D01*
X169632381Y-82446904D02*
X170632381Y-83113571D01*
X167306667Y-76712381D02*
X167306667Y-77426667D01*
X167259047Y-77569524D01*
X167163809Y-77664762D01*
X167020952Y-77712381D01*
X166925714Y-77712381D01*
X167687619Y-76712381D02*
X168306667Y-76712381D01*
X167973333Y-77093333D01*
X168116191Y-77093333D01*
X168211429Y-77140952D01*
X168259048Y-77188571D01*
X168306667Y-77283810D01*
X168306667Y-77521905D01*
X168259048Y-77617143D01*
X168211429Y-77664762D01*
X168116191Y-77712381D01*
X167830476Y-77712381D01*
X167735238Y-77664762D01*
X167687619Y-77617143D01*
X170632381Y-75279048D02*
X169965714Y-74755238D01*
X169965714Y-75279048D02*
X170632381Y-74755238D01*
X170108571Y-74040952D02*
X170156190Y-73898095D01*
X170203810Y-73850476D01*
X170299048Y-73802857D01*
X170441905Y-73802857D01*
X170537143Y-73850476D01*
X170584762Y-73898095D01*
X170632381Y-73993333D01*
X170632381Y-74374286D01*
X169632381Y-74374286D01*
X169632381Y-74040952D01*
X169680000Y-73945714D01*
X169727619Y-73898095D01*
X169822857Y-73850476D01*
X169918095Y-73850476D01*
X170013333Y-73898095D01*
X170060952Y-73945714D01*
X170108571Y-74040952D01*
X170108571Y-74374286D01*
X170584762Y-72993333D02*
X170632381Y-73088571D01*
X170632381Y-73279048D01*
X170584762Y-73374286D01*
X170489524Y-73421905D01*
X170108571Y-73421905D01*
X170013333Y-73374286D01*
X169965714Y-73279048D01*
X169965714Y-73088571D01*
X170013333Y-72993333D01*
X170108571Y-72945714D01*
X170203810Y-72945714D01*
X170299048Y-73421905D01*
X170584762Y-72136190D02*
X170632381Y-72231428D01*
X170632381Y-72421905D01*
X170584762Y-72517143D01*
X170489524Y-72564762D01*
X170108571Y-72564762D01*
X170013333Y-72517143D01*
X169965714Y-72421905D01*
X169965714Y-72231428D01*
X170013333Y-72136190D01*
X170108571Y-72088571D01*
X170203810Y-72088571D01*
X170299048Y-72564762D01*
M02*
