G04 #@! TF.FileFunction,Copper,L1,Top,Signal*
%FSLAX46Y46*%
G04 Gerber Fmt 4.6, Leading zero omitted, Abs format (unit mm)*
G04 Created by KiCad (PCBNEW 4.0.7) date 2018 June 21, Thursday 20:27:03*
%MOMM*%
%LPD*%
G01*
G04 APERTURE LIST*
%ADD10C,0.100000*%
%ADD11R,2.800000X1.520000*%
%ADD12R,1.520000X2.800000*%
%ADD13R,2.790000X2.790000*%
%ADD14C,1.727200*%
%ADD15R,1.727200X1.727200*%
%ADD16R,3.960000X1.980000*%
%ADD17O,3.960000X1.980000*%
%ADD18R,1.700000X1.700000*%
%ADD19O,1.700000X1.700000*%
%ADD20C,0.600000*%
%ADD21C,0.400000*%
%ADD22C,0.300000*%
%ADD23C,0.250000*%
G04 APERTURE END LIST*
D10*
D11*
X162975000Y-140724000D03*
X162975000Y-138724000D03*
X162975000Y-136724000D03*
X162975000Y-134724000D03*
X162975000Y-132724000D03*
X162975000Y-130724000D03*
X162975000Y-128724000D03*
X162975000Y-126724000D03*
X162975000Y-124724000D03*
X162975000Y-122724000D03*
X162975000Y-120724000D03*
X162975000Y-118724000D03*
X162975000Y-116724000D03*
D12*
X159125000Y-114744000D03*
X157125000Y-114744000D03*
X155125000Y-114744000D03*
X153125000Y-114744000D03*
X151125000Y-114744000D03*
X149125000Y-114744000D03*
X147125000Y-114626000D03*
X145125000Y-114626000D03*
D11*
X141275000Y-116724000D03*
X141275000Y-118724000D03*
X141275000Y-120724000D03*
X141275000Y-122724000D03*
X141275000Y-124724000D03*
X141275000Y-126724000D03*
X141275000Y-128724000D03*
X141275000Y-130724000D03*
X141275000Y-132724000D03*
X141275000Y-134724000D03*
X141275000Y-136724000D03*
X141275000Y-138724000D03*
X141275000Y-140724000D03*
X141275000Y-142724000D03*
X141275000Y-144724000D03*
X141275000Y-146724000D03*
D13*
X156980000Y-137730000D03*
D14*
X135890000Y-105410000D03*
X135890000Y-102870000D03*
X135890000Y-100330000D03*
X135890000Y-97790000D03*
X135890000Y-95250000D03*
X135890000Y-92710000D03*
X135890000Y-90170000D03*
X135890000Y-87630000D03*
X135890000Y-85090000D03*
X135890000Y-82550000D03*
X135890000Y-80010000D03*
X135890000Y-77470000D03*
X135890000Y-74930000D03*
X135890000Y-72390000D03*
X135890000Y-69850000D03*
X151130000Y-69850000D03*
X151130000Y-72390000D03*
X151130000Y-74930000D03*
X151130000Y-77470000D03*
X151130000Y-80010000D03*
X151130000Y-82550000D03*
X151130000Y-85090000D03*
X151130000Y-87630000D03*
X151130000Y-90170000D03*
X151130000Y-92710000D03*
X151130000Y-95250000D03*
X151130000Y-97790000D03*
X151130000Y-100330000D03*
X151130000Y-102870000D03*
D15*
X151130000Y-105410000D03*
D16*
X162560000Y-106680000D03*
D17*
X162560000Y-101680000D03*
D18*
X167640000Y-83820000D03*
D19*
X167640000Y-81280000D03*
D18*
X167640000Y-74930000D03*
D19*
X167640000Y-72390000D03*
D20*
X167132000Y-134112000D03*
D21*
X162560000Y-106680000D02*
X149860000Y-106680000D01*
X149860000Y-106680000D02*
X148590000Y-105410000D01*
X148590000Y-105410000D02*
X135890000Y-105410000D01*
X162560000Y-101680000D02*
X162560000Y-101854000D01*
X162560000Y-101854000D02*
X165608000Y-104902000D01*
X160782000Y-133928000D02*
X156980000Y-137730000D01*
X160782000Y-115062000D02*
X160782000Y-133928000D01*
X165608000Y-110236000D02*
X160782000Y-115062000D01*
X165608000Y-104902000D02*
X165608000Y-110236000D01*
X151130000Y-97790000D02*
X158670000Y-97790000D01*
X158670000Y-97790000D02*
X162560000Y-101680000D01*
X151130000Y-97790000D02*
X146050000Y-102870000D01*
X146050000Y-102870000D02*
X135890000Y-102870000D01*
X162975000Y-140724000D02*
X162560000Y-140970000D01*
X162560000Y-101600000D02*
X162560000Y-101680000D01*
X162975000Y-140724000D02*
X162560000Y-140970000D01*
X162560000Y-140970000D02*
X160020000Y-140970000D01*
X160020000Y-140970000D02*
X157480000Y-138430000D01*
X157480000Y-138430000D02*
X157480000Y-137160000D01*
X157480000Y-137160000D02*
X156980000Y-137730000D01*
D22*
X138366500Y-147002500D02*
X138366500Y-115887500D01*
X138366500Y-115887500D02*
X133858000Y-111379000D01*
X159766000Y-148844000D02*
X165354000Y-143256000D01*
X165354000Y-143256000D02*
X165354000Y-143383000D01*
X140208000Y-148844000D02*
X138366500Y-147002500D01*
X140208000Y-148844000D02*
X159766000Y-148844000D01*
X135890000Y-72390000D02*
X133858000Y-72390000D01*
X133858000Y-72390000D02*
X133858000Y-111379000D01*
X165314000Y-138724000D02*
X162975000Y-138724000D01*
X165354000Y-138684000D02*
X165314000Y-138724000D01*
X165354000Y-143383000D02*
X165354000Y-138684000D01*
D23*
X169164000Y-73660000D02*
X169164000Y-71120000D01*
X153416000Y-70104000D02*
X151130000Y-72390000D01*
X168148000Y-70104000D02*
X153416000Y-70104000D01*
X169164000Y-71120000D02*
X168148000Y-70104000D01*
X162975000Y-134724000D02*
X163068000Y-134620000D01*
X163068000Y-134620000D02*
X163576000Y-134112000D01*
X163576000Y-134112000D02*
X165100000Y-134112000D01*
X165100000Y-134112000D02*
X169164000Y-130048000D01*
X169164000Y-130048000D02*
X169164000Y-73660000D01*
X169164000Y-73660000D02*
X168148000Y-72644000D01*
X168148000Y-72644000D02*
X167640000Y-72644000D01*
X167640000Y-72644000D02*
X167640000Y-72390000D01*
X162975000Y-134724000D02*
X163068000Y-134620000D01*
X162560000Y-134620000D02*
X162975000Y-134724000D01*
X167132000Y-134112000D02*
X164592000Y-136652000D01*
X164592000Y-136652000D02*
X163068000Y-136652000D01*
X163068000Y-136652000D02*
X162975000Y-136724000D01*
X163068000Y-136652000D02*
X162975000Y-136724000D01*
X162560000Y-137160000D02*
X162975000Y-136724000D01*
X151130000Y-92710000D02*
X162560000Y-81280000D01*
X162560000Y-81280000D02*
X167640000Y-81280000D01*
X151130000Y-95250000D02*
X162560000Y-83820000D01*
X162560000Y-83820000D02*
X167640000Y-83820000D01*
M02*
