M48
INCH,TZ
T1C0.016
T2C0.039
T3C0.040
T4C0.052
%
G90
G05
T1
X65800Y-52800
T2
X66000Y-28500
X66000Y-29500
X66000Y-32000
X66000Y-33000
T3
X53500Y-27500
X53500Y-28500
X53500Y-29500
X53500Y-30500
X53500Y-31500
X53500Y-32500
X53500Y-33500
X53500Y-34500
X53500Y-35500
X53500Y-36500
X53500Y-37500
X53500Y-38500
X53500Y-39500
X53500Y-40500
X53500Y-41500
X59500Y-27500
X59500Y-28500
X59500Y-29500
X59500Y-30500
X59500Y-31500
X59500Y-32500
X59500Y-33500
X59500Y-34500
X59500Y-35500
X59500Y-36500
X59500Y-37500
X59500Y-38500
X59500Y-39500
X59500Y-40500
X59500Y-41500
T4
X64000Y-40031
X64000Y-42000
T0
M30
